<svg xmlns="http://www.w3.org/2000/svg" xmlns:xlink="http://www.w3.org/1999/xlink" version="1.1" class="marks" width="442" height="484" viewBox="0 0 442 484"><rect width="442" height="484" fill="white"/><g fill="none" stroke-miterlimit="10" transform="translate(85,99)"><g class="mark-group role-frame root" role="graphics-object" aria-roledescription="group mark container"><g transform="translate(0,0)"><path class="background" aria-hidden="true" d="M0,0h0v0h0Z"/><g><g class="mark-group role-column-title column-title" role="graphics-object" aria-roledescription="group mark container"><g transform="translate(125,-39)"><path class="background" aria-hidden="true" d="M0,0h0v0h0Z"/><g><g class="mark-group role-title"><g transform="translate(0,-28)"><path class="background" aria-hidden="true" d="M0,0h0v0h0Z" pointer-events="none"/><g><g class="mark-text role-title-text" role="graphics-symbol" aria-roledescription="title" aria-label="Title text 'Serum Group'" pointer-events="none"><text text-anchor="middle" transform="translate(0,14)" font-family="sans-serif" font-size="18px" font-weight="bold" fill="#000" opacity="1">Serum Group</text></g></g><path class="foreground" aria-hidden="true" d="" pointer-events="none" display="none"/></g></g></g><path class="foreground" aria-hidden="true" d="" display="none"/></g></g><g class="mark-group role-row-header row_header" role="graphics-object" aria-roledescription="group mark container"><g transform="translate(-1,0)"><path class="background" aria-hidden="true" d="M0,0h0v350h0Z"/><g><g class="mark-group role-axis" role="graphics-symbol" aria-roledescription="axis" aria-label="Y-axis titled 'NT50 (Neutralization Titer)' for a log scale with values from 100 to 100,000"><g transform="translate(0.5,0.5)"><path class="background" aria-hidden="true" d="M0,0h0v0h0Z" pointer-events="none"/><g><g class="mark-text role-axis-label" pointer-events="none"><text text-anchor="end" transform="translate(-6,354)" font-family="sans-serif" font-size="14px" fill="#000" opacity="1">100</text><text text-anchor="end" transform="translate(-6,318.87983383920226)" font-family="sans-serif" font-size="14px" fill="#000" opacity="1">200</text><text text-anchor="end" transform="translate(-6,298.3358536160394)" font-family="sans-serif" font-size="14px" fill="#000" opacity="1">300</text><text text-anchor="end" transform="translate(-6,283.7596676784044)" font-family="sans-serif" font-size="14px" fill="#000" opacity="1"/><text text-anchor="end" transform="translate(-6,272.4534994941312)" font-family="sans-serif" font-size="14px" fill="#000" opacity="1"/><text text-anchor="end" transform="translate(-6,263.2156874552416)" font-family="sans-serif" font-size="14px" fill="#000" opacity="1"/><text text-anchor="end" transform="translate(-6,255.40522866500342)" font-family="sans-serif" font-size="14px" fill="#000" opacity="1"/><text text-anchor="end" transform="translate(-6,248.6395015176066)" font-family="sans-serif" font-size="14px" fill="#000" opacity="1"/><text text-anchor="end" transform="translate(-6,242.67170723207877)" font-family="sans-serif" font-size="14px" fill="#000" opacity="1"/><text text-anchor="end" transform="translate(-6,237.33333333333337)" font-family="sans-serif" font-size="14px" fill="#000" opacity="1">1,000</text><text text-anchor="end" transform="translate(-6,202.21316717253555)" font-family="sans-serif" font-size="14px" fill="#000" opacity="1">2,000</text><text text-anchor="end" transform="translate(-6,181.66918694937274)" font-family="sans-serif" font-size="14px" fill="#000" opacity="1">3,000</text><text text-anchor="end" transform="translate(-6,167.09300101173773)" font-family="sans-serif" font-size="14px" fill="#000" opacity="1"/><text text-anchor="end" transform="translate(-6,155.78683282746445)" font-family="sans-serif" font-size="14px" fill="#000" opacity="1"/><text text-anchor="end" transform="translate(-6,146.54902078857495)" font-family="sans-serif" font-size="14px" fill="#000" opacity="1"/><text text-anchor="end" transform="translate(-6,138.73856199833673)" font-family="sans-serif" font-size="14px" fill="#000" opacity="1"/><text text-anchor="end" transform="translate(-6,131.97283485093993)" font-family="sans-serif" font-size="14px" fill="#000" opacity="1"/><text text-anchor="end" transform="translate(-6,126.0050405654121)" font-family="sans-serif" font-size="14px" fill="#000" opacity="1"/><text text-anchor="end" transform="translate(-6,120.66666666666664)" font-family="sans-serif" font-size="14px" fill="#000" opacity="1">10,000</text><text text-anchor="end" transform="translate(-6,85.54650050586892)" font-family="sans-serif" font-size="14px" fill="#000" opacity="1">20,000</text><text text-anchor="end" transform="translate(-6,65.00252028270603)" font-family="sans-serif" font-size="14px" fill="#000" opacity="1">30,000</text><text text-anchor="end" transform="translate(-6,50.42633434507112)" font-family="sans-serif" font-size="14px" fill="#000" opacity="1"/><text text-anchor="end" transform="translate(-6,39.1201661607978)" font-family="sans-serif" font-size="14px" fill="#000" opacity="1"/><text text-anchor="end" transform="translate(-6,29.88235412190823)" font-family="sans-serif" font-size="14px" fill="#000" opacity="1"/><text text-anchor="end" transform="translate(-6,22.071895331670092)" font-family="sans-serif" font-size="14px" fill="#000" opacity="1"/><text text-anchor="end" transform="translate(-6,15.306168184273279)" font-family="sans-serif" font-size="14px" fill="#000" opacity="1"/><text text-anchor="end" transform="translate(-6,9.338373898745457)" font-family="sans-serif" font-size="14px" fill="#000" opacity="1"/><text text-anchor="end" transform="translate(-6,4)" font-family="sans-serif" font-size="14px" fill="#000" opacity="1">100,000</text></g><g class="mark-rule role-axis-domain" pointer-events="none"><line transform="translate(0,350)" x2="0" y2="-350" stroke="black" stroke-width="2" opacity="1"/></g><g class="mark-text role-axis-title" pointer-events="none"><text text-anchor="middle" transform="translate(-60.6064453125,175) rotate(-90) translate(0,-4)" font-family="sans-serif" font-size="18px" font-weight="bold" fill="#000" opacity="1">NT50 (Neutralization Titer)</text></g></g><path class="foreground" aria-hidden="true" d="" pointer-events="none" display="none"/></g></g></g><path class="foreground" aria-hidden="true" d="" display="none"/></g></g><g class="mark-group role-column-header column_header" role="graphics-object" aria-roledescription="group mark container"><g transform="translate(0,-1)"><path class="background" aria-hidden="true" d="M0,0h250v0h-250Z"/><g><g class="mark-group role-title"><g transform="translate(125,-28)"><path class="background" aria-hidden="true" d="M0,0h0v0h0Z" pointer-events="none"/><g><g class="mark-text role-title-text" role="graphics-symbol" aria-roledescription="title" aria-label="Title text 'Participant 02 (Batch Control)'" pointer-events="none"><text text-anchor="middle" transform="translate(0,14)" font-family="sans-serif" font-size="18px" fill="#000" opacity="1">Participant 02 (Batch Control)</text></g></g><path class="foreground" aria-hidden="true" d="" pointer-events="none" display="none"/></g></g></g><path class="foreground" aria-hidden="true" d="" display="none"/></g></g><g class="mark-group role-column-footer column_footer" role="graphics-object" aria-roledescription="group mark container"><g transform="translate(0,351)"><path class="background" aria-hidden="true" d="M0,0h250v0h-250Z"/><g><g class="mark-group role-axis" role="graphics-symbol" aria-roledescription="axis" aria-label="X-axis for a discrete scale with 3 values: d28, d56, d365"><g transform="translate(0.5,0.5)"><path class="background" aria-hidden="true" d="M0,0h0v0h0Z" pointer-events="none"/><g><g class="mark-rule role-axis-tick" pointer-events="none"><line transform="translate(42,0)" x2="0" y2="5" stroke="#888" stroke-width="2" opacity="1"/><line transform="translate(125,0)" x2="0" y2="5" stroke="#888" stroke-width="2" opacity="1"/><line transform="translate(208,0)" x2="0" y2="5" stroke="#888" stroke-width="2" opacity="1"/></g><g class="mark-text role-axis-label" pointer-events="none"><text text-anchor="middle" transform="translate(41.66666666666667,25)" font-family="sans-serif" font-size="18px" fill="#000" opacity="1">d28</text><text text-anchor="middle" transform="translate(125,25)" font-family="sans-serif" font-size="18px" fill="#000" opacity="1">d56</text><text text-anchor="middle" transform="translate(208.33333333333331,25)" font-family="sans-serif" font-size="18px" fill="#000" opacity="1">d365</text></g><g class="mark-rule role-axis-domain" pointer-events="none"><line transform="translate(0,0)" x2="250" y2="0" stroke="black" stroke-width="2" opacity="1"/></g></g><path class="foreground" aria-hidden="true" d="" pointer-events="none" display="none"/></g></g></g><path class="foreground" aria-hidden="true" d="" display="none"/></g></g><g class="mark-group role-scope cell" role="graphics-object" aria-roledescription="group mark container"><g transform="translate(0,0)"><path class="background" aria-hidden="true" d="M0.5,0.5h250v350h-250Z" stroke="#ddd"/><g><g class="mark-group role-axis" aria-hidden="true"><g transform="translate(0.5,0.5)"><path class="background" aria-hidden="true" d="M0,0h0v0h0Z" pointer-events="none"/><g><g class="mark-rule role-axis-grid" pointer-events="none"><line transform="translate(0,350)" x2="250" y2="0" stroke="#ddd" stroke-width="1" opacity="1"/><line transform="translate(0,315)" x2="250" y2="0" stroke="#ddd" stroke-width="1" opacity="1"/><line transform="translate(0,294)" x2="250" y2="0" stroke="#ddd" stroke-width="1" opacity="1"/><line transform="translate(0,280)" x2="250" y2="0" stroke="#ddd" stroke-width="1" opacity="1"/><line transform="translate(0,268)" x2="250" y2="0" stroke="#ddd" stroke-width="1" opacity="1"/><line transform="translate(0,259)" x2="250" y2="0" stroke="#ddd" stroke-width="1" opacity="1"/><line transform="translate(0,251)" x2="250" y2="0" stroke="#ddd" stroke-width="1" opacity="1"/><line transform="translate(0,245)" x2="250" y2="0" stroke="#ddd" stroke-width="1" opacity="1"/><line transform="translate(0,239)" x2="250" y2="0" stroke="#ddd" stroke-width="1" opacity="1"/><line transform="translate(0,233)" x2="250" y2="0" stroke="#ddd" stroke-width="1" opacity="1"/><line transform="translate(0,198)" x2="250" y2="0" stroke="#ddd" stroke-width="1" opacity="1"/><line transform="translate(0,178)" x2="250" y2="0" stroke="#ddd" stroke-width="1" opacity="1"/><line transform="translate(0,163)" x2="250" y2="0" stroke="#ddd" stroke-width="1" opacity="1"/><line transform="translate(0,152)" x2="250" y2="0" stroke="#ddd" stroke-width="1" opacity="1"/><line transform="translate(0,143)" x2="250" y2="0" stroke="#ddd" stroke-width="1" opacity="1"/><line transform="translate(0,135)" x2="250" y2="0" stroke="#ddd" stroke-width="1" opacity="1"/><line transform="translate(0,128)" x2="250" y2="0" stroke="#ddd" stroke-width="1" opacity="1"/><line transform="translate(0,122)" x2="250" y2="0" stroke="#ddd" stroke-width="1" opacity="1"/><line transform="translate(0,117)" x2="250" y2="0" stroke="#ddd" stroke-width="1" opacity="1"/><line transform="translate(0,82)" x2="250" y2="0" stroke="#ddd" stroke-width="1" opacity="1"/><line transform="translate(0,61)" x2="250" y2="0" stroke="#ddd" stroke-width="1" opacity="1"/><line transform="translate(0,46)" x2="250" y2="0" stroke="#ddd" stroke-width="1" opacity="1"/><line transform="translate(0,35)" x2="250" y2="0" stroke="#ddd" stroke-width="1" opacity="1"/><line transform="translate(0,26)" x2="250" y2="0" stroke="#ddd" stroke-width="1" opacity="1"/><line transform="translate(0,18)" x2="250" y2="0" stroke="#ddd" stroke-width="1" opacity="1"/><line transform="translate(0,11)" x2="250" y2="0" stroke="#ddd" stroke-width="1" opacity="1"/><line transform="translate(0,5)" x2="250" y2="0" stroke="#ddd" stroke-width="1" opacity="1"/><line transform="translate(0,0)" x2="250" y2="0" stroke="#ddd" stroke-width="1" opacity="1"/></g></g><path class="foreground" aria-hidden="true" d="" pointer-events="none" display="none"/></g></g><g class="mark-group role-scope view_f5f4b5fe33fb52f4_0_pathgroup" role="graphics-object" aria-roledescription="group mark container"><g transform="translate(0,0)"><path class="background" aria-hidden="true" d="M0,0h250v350h-250Z"/><g><g class="mark-line role-mark view_f5f4b5fe33fb52f4_0_marks" role="graphics-object" aria-roledescription="line mark container"><path aria-label="virus: d28; NT50 (Neutralization Titer): 81571.6391; Batch: 26.01.08 ; serum: 2; serum group: Participant 02 (Batch Control)" role="graphics-symbol" aria-roledescription="line mark" d="M41.667,10.32L125,90.142L208.333,144.613" stroke="#4c78a8" stroke-width="2" opacity="1"/></g></g><path class="foreground" aria-hidden="true" d="" display="none"/></g><g transform="translate(0,0)"><path class="background" aria-hidden="true" d="M0,0h250v350h-250Z"/><g><g class="mark-line role-mark view_f5f4b5fe33fb52f4_0_marks" role="graphics-object" aria-roledescription="line mark container"><path aria-label="virus: d28; NT50 (Neutralization Titer): 63218.7360798; Batch: 26.01.15 ; serum: 2; serum group: Participant 02 (Batch Control)" role="graphics-symbol" aria-roledescription="line mark" d="M41.667,23.235L125,120.345L208.333,120.897" stroke="#f58518" stroke-width="2" opacity="1"/></g></g><path class="foreground" aria-hidden="true" d="" display="none"/></g><g transform="translate(0,0)"><path class="background" aria-hidden="true" d="M0,0h250v350h-250Z"/><g><g class="mark-line role-mark view_f5f4b5fe33fb52f4_0_marks" role="graphics-object" aria-roledescription="line mark container"><path aria-label="virus: d28; NT50 (Neutralization Titer): 5289.29456354; Batch: 26.01.16; serum: 2; serum group: Participant 02 (Batch Control)" role="graphics-symbol" aria-roledescription="line mark" d="M41.667,148.937L125,203.432L208.333,276.354" stroke="#e45756" stroke-width="2" opacity="1"/></g></g><path class="foreground" aria-hidden="true" d="" display="none"/></g><g transform="translate(0,0)"><path class="background" aria-hidden="true" d="M0,0h250v350h-250Z"/><g><g class="mark-line role-mark view_f5f4b5fe33fb52f4_0_marks" role="graphics-object" aria-roledescription="line mark container"><path aria-label="virus: d28; NT50 (Neutralization Titer): 7576.47940393; Batch: 26.01.23; serum: 2; serum group: Participant 02 (Batch Control)" role="graphics-symbol" aria-roledescription="line mark" d="M41.667,130.729L125,215.298L208.333,289.135" stroke="#72b7b2" stroke-width="2" opacity="1"/></g></g><path class="foreground" aria-hidden="true" d="" display="none"/></g><g transform="translate(0,0)"><path class="background" aria-hidden="true" d="M0,0h250v350h-250Z"/><g><g class="mark-line role-mark view_f5f4b5fe33fb52f4_0_marks" role="graphics-object" aria-roledescription="line mark container"><path aria-label="virus: d28; NT50 (Neutralization Titer): 24491.9996125; Batch: 26.01.29; serum: 2; serum group: Participant 02 (Batch Control)" role="graphics-symbol" aria-roledescription="line mark" d="M41.667,71.281L125,140.63L208.333,182.057" stroke="#54a24b" stroke-width="2" opacity="1"/></g></g><path class="foreground" aria-hidden="true" d="" display="none"/></g></g><g class="mark-symbol role-mark child_layer_0_layer_1_marks" role="graphics-object" aria-roledescription="symbol mark container"><path aria-label="virus: d28; NT50 (Neutralization Titer): 81571.6391; Batch: 26.01.08 ; serum: 2; serum group: Participant 02 (Batch Control)" role="graphics-symbol" aria-roledescription="point" transform="translate(41.66666666666667,10.320427937675719)" d="M2.739,0A2.739,2.739,0,1,1,-2.739,0A2.739,2.739,0,1,1,2.739,0" fill="#4c78a8" stroke-width="2" opacity="1"/><path aria-label="virus: d56; NT50 (Neutralization Titer): 16879.4149593; Batch: 26.01.08 ; serum: 2; serum group: Participant 02 (Batch Control)" role="graphics-symbol" aria-roledescription="point" transform="translate(125,90.14163784511123)" d="M2.739,0A2.739,2.739,0,1,1,-2.739,0A2.739,2.739,0,1,1,2.739,0" fill="#4c78a8" stroke-width="2" opacity="1"/><path aria-label="virus: d365; NT50 (Neutralization Titer): 5760.4943364; Batch: 26.01.08 ; serum: 2; serum group: Participant 02 (Batch Control)" role="graphics-symbol" aria-roledescription="point" transform="translate(208.33333333333331,144.61302870334077)" d="M2.739,0A2.739,2.739,0,1,1,-2.739,0A2.739,2.739,0,1,1,2.739,0" fill="#4c78a8" stroke-width="2" opacity="1"/><path aria-label="virus: d28; NT50 (Neutralization Titer): 63218.7360798; Batch: 26.01.15 ; serum: 2; serum group: Participant 02 (Batch Control)" role="graphics-symbol" aria-roledescription="point" transform="translate(41.66666666666667,23.234655637324654)" d="M2.739,0A2.739,2.739,0,1,1,-2.739,0A2.739,2.739,0,1,1,2.739,0" fill="#f58518" stroke-width="2" opacity="1"/><path aria-label="virus: d56; NT50 (Neutralization Titer): 9299.80019761; Batch: 26.01.15 ; serum: 2; serum group: Participant 02 (Batch Control)" role="graphics-symbol" aria-roledescription="point" transform="translate(125,120.34474456484757)" d="M2.739,0A2.739,2.739,0,1,1,-2.739,0A2.739,2.739,0,1,1,2.739,0" fill="#f58518" stroke-width="2" opacity="1"/><path aria-label="virus: d365; NT50 (Neutralization Titer): 9198.91235048; Batch: 26.01.15 ; serum: 2; serum group: Participant 02 (Batch Control)" role="graphics-symbol" aria-roledescription="point" transform="translate(208.33333333333331,120.89741057193697)" d="M2.739,0A2.739,2.739,0,1,1,-2.739,0A2.739,2.739,0,1,1,2.739,0" fill="#f58518" stroke-width="2" opacity="1"/><path aria-label="virus: d28; NT50 (Neutralization Titer): 5289.29456354; Batch: 26.01.16; serum: 2; serum group: Participant 02 (Batch Control)" role="graphics-symbol" aria-roledescription="point" transform="translate(41.66666666666667,148.93692872610598)" d="M2.739,0A2.739,2.739,0,1,1,-2.739,0A2.739,2.739,0,1,1,2.739,0" fill="#e45756" stroke-width="2" opacity="1"/><path aria-label="virus: d56; NT50 (Neutralization Titer): 1804.24330401; Batch: 26.01.16; serum: 2; serum group: Participant 02 (Batch Control)" role="graphics-symbol" aria-roledescription="point" transform="translate(125,203.43223807664057)" d="M2.739,0A2.739,2.739,0,1,1,-2.739,0A2.739,2.739,0,1,1,2.739,0" fill="#e45756" stroke-width="2" opacity="1"/><path aria-label="virus: d365; NT50 (Neutralization Titer): 427.810041834; Batch: 26.01.16; serum: 2; serum group: Participant 02 (Batch Control)" role="graphics-symbol" aria-roledescription="point" transform="translate(208.33333333333331,276.35405298712504)" d="M2.739,0A2.739,2.739,0,1,1,-2.739,0A2.739,2.739,0,1,1,2.739,0" fill="#e45756" stroke-width="2" opacity="1"/><path aria-label="virus: d28; NT50 (Neutralization Titer): 7576.47940393; Batch: 26.01.23; serum: 2; serum group: Participant 02 (Batch Control)" role="graphics-symbol" aria-roledescription="point" transform="translate(41.66666666666667,130.7287978530742)" d="M2.739,0A2.739,2.739,0,1,1,-2.739,0A2.739,2.739,0,1,1,2.739,0" fill="#72b7b2" stroke-width="2" opacity="1"/><path aria-label="virus: d56; NT50 (Neutralization Titer): 1427.53104856; Batch: 26.01.23; serum: 2; serum group: Participant 02 (Batch Control)" role="graphics-symbol" aria-roledescription="point" transform="translate(125,215.2983510006898)" d="M2.739,0A2.739,2.739,0,1,1,-2.739,0A2.739,2.739,0,1,1,2.739,0" fill="#72b7b2" stroke-width="2" opacity="1"/><path aria-label="virus: d365; NT50 (Neutralization Titer): 332.427417363; Batch: 26.01.23; serum: 2; serum group: Participant 02 (Batch Control)" role="graphics-symbol" aria-roledescription="point" transform="translate(208.33333333333331,289.1353691840996)" d="M2.739,0A2.739,2.739,0,1,1,-2.739,0A2.739,2.739,0,1,1,2.739,0" fill="#72b7b2" stroke-width="2" opacity="1"/><path aria-label="virus: d28; NT50 (Neutralization Titer): 24491.9996125; Batch: 26.01.29; serum: 2; serum group: Participant 02 (Batch Control)" role="graphics-symbol" aria-roledescription="point" transform="translate(41.66666666666667,71.28050487921114)" d="M2.739,0A2.739,2.739,0,1,1,-2.739,0A2.739,2.739,0,1,1,2.739,0" fill="#54a24b" stroke-width="2" opacity="1"/><path aria-label="virus: d56; NT50 (Neutralization Titer): 6231.62821349; Batch: 26.01.29; serum: 2; serum group: Participant 02 (Batch Control)" role="graphics-symbol" aria-roledescription="point" transform="translate(125,140.62982092822975)" d="M2.739,0A2.739,2.739,0,1,1,-2.739,0A2.739,2.739,0,1,1,2.739,0" fill="#54a24b" stroke-width="2" opacity="1"/><path aria-label="virus: d365; NT50 (Neutralization Titer): 2751.14273304; Batch: 26.01.29; serum: 2; serum group: Participant 02 (Batch Control)" role="graphics-symbol" aria-roledescription="point" transform="translate(208.33333333333331,182.05680234417528)" d="M2.739,0A2.739,2.739,0,1,1,-2.739,0A2.739,2.739,0,1,1,2.739,0" fill="#54a24b" stroke-width="2" opacity="1"/></g><g class="mark-line role-mark child_layer_1_marks" role="graphics-object" aria-roledescription="line mark container" pointer-events="none"><path aria-label="virus: d28; median_value: 24491.9996125" role="graphics-symbol" aria-roledescription="line mark" d="M41.667,71.281L125,140.63L208.333,182.057" stroke="black" stroke-width="4"/></g><g class="mark-symbol role-mark child_layer_2_marks" role="graphics-object" aria-roledescription="symbol mark container" pointer-events="none"><path aria-label="virus: d28; median_value: 24491.9996125" role="graphics-symbol" aria-roledescription="point" transform="translate(41.66666666666667,71.28050487921114)" d="M3.536,0A3.536,3.536,0,1,1,-3.536,0A3.536,3.536,0,1,1,3.536,0" stroke="black" stroke-width="2" opacity="0.7"/><path aria-label="virus: d56; median_value: 6231.62821349" role="graphics-symbol" aria-roledescription="point" transform="translate(125,140.62982092822975)" d="M3.536,0A3.536,3.536,0,1,1,-3.536,0A3.536,3.536,0,1,1,3.536,0" stroke="black" stroke-width="2" opacity="0.7"/><path aria-label="virus: d365; median_value: 2751.14273304" role="graphics-symbol" aria-roledescription="point" transform="translate(208.33333333333331,182.05680234417528)" d="M3.536,0A3.536,3.536,0,1,1,-3.536,0A3.536,3.536,0,1,1,3.536,0" stroke="black" stroke-width="2" opacity="0.7"/></g></g><path class="foreground" aria-hidden="true" d="" display="none"/></g></g><g class="mark-group role-legend" role="graphics-symbol" aria-roledescription="legend" aria-label="Symbol legend titled 'Batch' for fill color and stroke color with 5 values: 26.01.08 , 26.01.15 , 26.01.16, 26.01.23, 26.01.29"><g transform="translate(269,0)"><path class="background" aria-hidden="true" d="M0,0h83v111h-83Z" pointer-events="none"/><g><g class="mark-group role-legend-entry"><g transform="translate(0,23)"><path class="background" aria-hidden="true" d="M0,0h0v0h0Z" pointer-events="none"/><g><g class="mark-group role-scope" role="graphics-object" aria-roledescription="group mark container"><g transform="translate(0,0)"><path class="background" aria-hidden="true" d="M0,0h82.28125v16h-82.28125Z" pointer-events="none" opacity="1"/><g><g class="mark-symbol role-legend-symbol" pointer-events="none"><path transform="translate(8,8)" d="M6.124,0A6.124,6.124,0,1,1,-6.124,0A6.124,6.124,0,1,1,6.124,0" fill="#4c78a8" stroke="#4c78a8" stroke-width="1.5" opacity="1"/></g><g class="mark-text role-legend-label" pointer-events="none"><text text-anchor="start" transform="translate(20,13)" font-family="sans-serif" font-size="16px" fill="#000" opacity="1">26.01.08</text></g></g><path class="foreground" aria-hidden="true" d="" pointer-events="none" display="none"/></g><g transform="translate(0,18)"><path class="background" aria-hidden="true" d="M0,0h82.28125v16h-82.28125Z" pointer-events="none" opacity="1"/><g><g class="mark-symbol role-legend-symbol" pointer-events="none"><path transform="translate(8,8)" d="M6.124,0A6.124,6.124,0,1,1,-6.124,0A6.124,6.124,0,1,1,6.124,0" fill="#f58518" stroke="#f58518" stroke-width="1.5" opacity="1"/></g><g class="mark-text role-legend-label" pointer-events="none"><text text-anchor="start" transform="translate(20,13)" font-family="sans-serif" font-size="16px" fill="#000" opacity="1">26.01.15</text></g></g><path class="foreground" aria-hidden="true" d="" pointer-events="none" display="none"/></g><g transform="translate(0,36)"><path class="background" aria-hidden="true" d="M0,0h82.28125v16h-82.28125Z" pointer-events="none" opacity="1"/><g><g class="mark-symbol role-legend-symbol" pointer-events="none"><path transform="translate(8,8)" d="M6.124,0A6.124,6.124,0,1,1,-6.124,0A6.124,6.124,0,1,1,6.124,0" fill="#e45756" stroke="#e45756" stroke-width="1.5" opacity="1"/></g><g class="mark-text role-legend-label" pointer-events="none"><text text-anchor="start" transform="translate(20,13)" font-family="sans-serif" font-size="16px" fill="#000" opacity="1">26.01.16</text></g></g><path class="foreground" aria-hidden="true" d="" pointer-events="none" display="none"/></g><g transform="translate(0,54)"><path class="background" aria-hidden="true" d="M0,0h82.28125v16h-82.28125Z" pointer-events="none" opacity="1"/><g><g class="mark-symbol role-legend-symbol" pointer-events="none"><path transform="translate(8,8)" d="M6.124,0A6.124,6.124,0,1,1,-6.124,0A6.124,6.124,0,1,1,6.124,0" fill="#72b7b2" stroke="#72b7b2" stroke-width="1.5" opacity="1"/></g><g class="mark-text role-legend-label" pointer-events="none"><text text-anchor="start" transform="translate(20,13)" font-family="sans-serif" font-size="16px" fill="#000" opacity="1">26.01.23</text></g></g><path class="foreground" aria-hidden="true" d="" pointer-events="none" display="none"/></g><g transform="translate(0,72)"><path class="background" aria-hidden="true" d="M0,0h82.28125v16h-82.28125Z" pointer-events="none" opacity="1"/><g><g class="mark-symbol role-legend-symbol" pointer-events="none"><path transform="translate(8,8)" d="M6.124,0A6.124,6.124,0,1,1,-6.124,0A6.124,6.124,0,1,1,6.124,0" fill="#54a24b" stroke="#54a24b" stroke-width="1.5" opacity="1"/></g><g class="mark-text role-legend-label" pointer-events="none"><text text-anchor="start" transform="translate(20,13)" font-family="sans-serif" font-size="16px" fill="#000" opacity="1">26.01.29</text></g></g><path class="foreground" aria-hidden="true" d="" pointer-events="none" display="none"/></g></g></g><path class="foreground" aria-hidden="true" d="" pointer-events="none" display="none"/></g></g><g class="mark-text role-legend-title" pointer-events="none"><text text-anchor="start" transform="translate(0,14)" font-family="sans-serif" font-size="18px" font-weight="bold" fill="#000" opacity="1">Batch</text></g></g><path class="foreground" aria-hidden="true" d="" pointer-events="none" display="none"/></g></g><g class="mark-group role-title"><g transform="translate(-79.6064453125,-93)"><path class="background" aria-hidden="true" d="M0,0h0v0h0Z" pointer-events="none"/><g><g class="mark-text role-title-text" role="graphics-symbol" aria-roledescription="title" aria-label="Title text 'Batch Control NT50 Slope Plot'" pointer-events="none"><text text-anchor="start" transform="translate(0,17)" font-family="sans-serif" font-size="22px" font-weight="bold" fill="#000" opacity="1">Batch Control NT50 Slope Plot</text></g></g><path class="foreground" aria-hidden="true" d="" pointer-events="none" display="none"/></g></g></g><path class="foreground" aria-hidden="true" d="" display="none"/></g></g></g></svg>